<svg width="201" height="71" viewBox="0 0 201 71" fill="none" xmlns="http://www.w3.org/2000/svg">
<path d="M23.2659 61L13.7949 38.23H18.4809L27.9519 61H23.2659ZM11.2539 61V38.23H15.6099V61H11.2539ZM26.1369 61V38.23H30.4929V61H26.1369ZM42.7308 61.429C41.1028 61.429 39.6508 61.044 38.3748 60.274C37.1208 59.504 36.1308 58.437 35.4048 57.073C34.7008 55.709 34.3488 54.103 34.3488 52.255C34.3488 50.407 34.7008 48.801 35.4048 47.437C36.1308 46.051 37.1208 44.984 38.3748 44.236C39.6508 43.466 41.1028 43.081 42.7308 43.081C44.4028 43.081 45.8658 43.466 47.1198 44.236C48.3738 44.984 49.3528 46.051 50.0568 47.437C50.7828 48.801 51.1458 50.407 51.1458 52.255C51.1458 54.103 50.7828 55.709 50.0568 57.073C49.3528 58.437 48.3738 59.504 47.1198 60.274C45.8658 61.044 44.4028 61.429 42.7308 61.429ZM42.7308 57.502C43.9408 57.502 44.8868 57.073 45.5688 56.215C46.2728 55.357 46.6248 54.037 46.6248 52.255C46.6248 50.473 46.2728 49.153 45.5688 48.295C44.8868 47.437 43.9408 47.008 42.7308 47.008C41.5428 47.008 40.5968 47.437 39.8928 48.295C39.2108 49.153 38.8698 50.473 38.8698 52.255C38.8698 54.037 39.2108 55.357 39.8928 56.215C40.5968 57.073 41.5428 57.502 42.7308 57.502ZM75.2123 61V50.638C75.2123 49.428 74.9263 48.515 74.3543 47.899C73.8043 47.283 73.1113 46.975 72.2753 46.975C71.4393 46.975 70.7353 47.283 70.1633 47.899C69.6133 48.515 69.3383 49.428 69.3383 50.638H68.0513C68.0513 49.054 68.2933 47.701 68.7773 46.579C69.2833 45.457 69.9873 44.599 70.8893 44.005C71.7913 43.389 72.8363 43.081 74.0243 43.081C75.6523 43.081 76.9833 43.675 78.0173 44.863C79.0733 46.029 79.6013 47.657 79.6013 49.747V61H75.2123ZM54.7193 61V43.51H59.1083V61H54.7193ZM64.9823 61V50.638C64.9823 49.428 64.6963 48.515 64.1243 47.899C63.5743 47.283 62.8813 46.975 62.0453 46.975C61.2093 46.975 60.5053 47.283 59.9333 47.899C59.3833 48.515 59.1083 49.428 59.1083 50.638H58.1513C58.1513 49.054 58.3823 47.701 58.8443 46.579C59.3283 45.457 59.9993 44.599 60.8573 44.005C61.7373 43.389 62.7383 43.081 63.8603 43.081C65.4663 43.081 66.7753 43.675 67.7873 44.863C68.8213 46.029 69.3383 47.657 69.3383 49.747V61H64.9823ZM94.3247 61C94.1927 60.428 94.0827 59.845 93.9947 59.251C93.9287 58.657 93.8957 58.074 93.8957 57.502V50.11C93.8957 48.878 93.5987 48.009 93.0047 47.503C92.4107 46.975 91.6957 46.711 90.8597 46.711C90.0677 46.711 89.3857 46.931 88.8137 47.371C88.2637 47.789 87.8787 48.471 87.6587 49.417L83.4677 48.394C83.9517 46.656 84.8647 45.336 86.2067 44.434C87.5487 43.532 89.1877 43.081 91.1237 43.081C93.3457 43.081 95.0947 43.675 96.3707 44.863C97.6467 46.029 98.2847 47.646 98.2847 49.714V57.106C98.2847 58.404 98.4497 59.702 98.7797 61H94.3247ZM88.3517 61.429C86.7017 61.429 85.4257 60.978 84.5237 60.076C83.6437 59.174 83.2037 58.008 83.2037 56.578C83.2037 55.28 83.6327 54.136 84.4907 53.146C85.3707 52.156 86.7347 51.518 88.5827 51.232L95.0507 50.143V53.047L90.1337 54.07C89.1877 54.268 88.5277 54.565 88.1537 54.961C87.7797 55.335 87.5927 55.753 87.5927 56.215C87.5927 56.677 87.7467 57.073 88.0547 57.403C88.3847 57.711 88.8907 57.865 89.5727 57.865C90.2767 57.865 90.9587 57.711 91.6187 57.403C92.2787 57.073 92.8177 56.6 93.2357 55.984C93.6757 55.346 93.8957 54.587 93.8957 53.707H95.0177C95.0177 55.291 94.7207 56.666 94.1267 57.832C93.5327 58.976 92.7297 59.867 91.7177 60.505C90.7277 61.121 89.6057 61.429 88.3517 61.429ZM108.709 61.429C107.367 61.429 106.179 61.066 105.145 60.34C104.133 59.592 103.341 58.536 102.769 57.172C102.219 55.808 101.944 54.169 101.944 52.255C101.944 50.341 102.219 48.702 102.769 47.338C103.341 45.974 104.133 44.929 105.145 44.203C106.179 43.455 107.367 43.081 108.709 43.081C110.491 43.081 111.921 43.763 112.999 45.127C114.099 46.469 114.649 48.394 114.649 50.902V53.608C114.649 56.094 114.099 58.019 112.999 59.383C111.921 60.747 110.491 61.429 108.709 61.429ZM110.26 57.502C111.404 57.502 112.317 57.073 112.999 56.215C113.703 55.357 114.055 54.037 114.055 52.255C114.055 50.473 113.703 49.153 112.999 48.295C112.317 47.437 111.404 47.008 110.26 47.008C109.116 47.008 108.192 47.437 107.488 48.295C106.806 49.153 106.465 50.473 106.465 52.255C106.465 54.037 106.806 55.357 107.488 56.215C108.192 57.073 109.116 57.502 110.26 57.502ZM113.758 61V56.578L114.352 52.255L113.758 48.097V37.405H118.147V61H113.758ZM132.305 61.429C130.259 61.429 128.455 60.945 126.893 59.977C125.353 59.009 124.143 57.645 123.263 55.885C122.405 54.103 121.976 52.013 121.976 49.615C121.976 47.195 122.405 45.105 123.263 43.345C124.143 41.585 125.353 40.221 126.893 39.253C128.455 38.285 130.259 37.801 132.305 37.801C133.955 37.801 135.44 38.109 136.76 38.725C138.102 39.341 139.224 40.221 140.126 41.365C141.028 42.487 141.644 43.84 141.974 45.424L137.453 46.678C137.189 45.204 136.606 44.071 135.704 43.279C134.824 42.487 133.68 42.091 132.272 42.091C130.578 42.091 129.214 42.751 128.18 44.071C127.146 45.391 126.629 47.239 126.629 49.615C126.629 51.969 127.146 53.817 128.18 55.159C129.214 56.479 130.578 57.139 132.272 57.139C133.724 57.139 134.901 56.743 135.803 55.951C136.705 55.137 137.288 53.982 137.552 52.486L142.073 53.74C141.721 55.346 141.094 56.721 140.192 57.865C139.29 59.009 138.168 59.889 136.826 60.505C135.506 61.121 133.999 61.429 132.305 61.429ZM155.956 61C155.824 60.428 155.714 59.845 155.626 59.251C155.56 58.657 155.527 58.074 155.527 57.502V50.11C155.527 48.878 155.23 48.009 154.636 47.503C154.042 46.975 153.327 46.711 152.491 46.711C151.699 46.711 151.017 46.931 150.445 47.371C149.895 47.789 149.51 48.471 149.29 49.417L145.099 48.394C145.583 46.656 146.496 45.336 147.838 44.434C149.18 43.532 150.819 43.081 152.755 43.081C154.977 43.081 156.726 43.675 158.002 44.863C159.278 46.029 159.916 47.646 159.916 49.714V57.106C159.916 58.404 160.081 59.702 160.411 61H155.956ZM149.983 61.429C148.333 61.429 147.057 60.978 146.155 60.076C145.275 59.174 144.835 58.008 144.835 56.578C144.835 55.28 145.264 54.136 146.122 53.146C147.002 52.156 148.366 51.518 150.214 51.232L156.682 50.143V53.047L151.765 54.07C150.819 54.268 150.159 54.565 149.785 54.961C149.411 55.335 149.224 55.753 149.224 56.215C149.224 56.677 149.378 57.073 149.686 57.403C150.016 57.711 150.522 57.865 151.204 57.865C151.908 57.865 152.59 57.711 153.25 57.403C153.91 57.073 154.449 56.6 154.867 55.984C155.307 55.346 155.527 54.587 155.527 53.707H156.649C156.649 55.291 156.352 56.666 155.758 57.832C155.164 58.976 154.361 59.867 153.349 60.505C152.359 61.121 151.237 61.429 149.983 61.429ZM164.335 61V43.51H168.724V61H164.335ZM167.932 52.684C167.932 50.748 168.152 49.065 168.592 47.635C169.032 46.183 169.714 45.061 170.638 44.269C171.562 43.477 172.739 43.081 174.169 43.081V48.064H172.255C171.155 48.064 170.286 48.35 169.648 48.922C169.032 49.472 168.724 50.44 168.724 51.826L167.932 52.684ZM183.578 61.429C181.466 61.429 179.772 61.022 178.496 60.208C177.242 59.372 176.428 58.118 176.054 56.446L180.113 55.159C180.399 56.149 180.85 56.864 181.466 57.304C182.104 57.744 182.907 57.964 183.875 57.964C184.777 57.964 185.448 57.832 185.888 57.568C186.328 57.282 186.548 56.875 186.548 56.347C186.548 55.797 186.306 55.368 185.822 55.06C185.36 54.752 184.755 54.499 184.007 54.301C183.259 54.081 182.456 53.861 181.598 53.641C180.762 53.399 179.97 53.091 179.222 52.717C178.474 52.321 177.858 51.793 177.374 51.133C176.89 50.451 176.648 49.56 176.648 48.46C176.648 46.898 177.253 45.611 178.463 44.599C179.673 43.587 181.378 43.081 183.578 43.081C185.492 43.081 187.032 43.477 188.198 44.269C189.386 45.061 190.222 46.216 190.706 47.734L186.746 48.988C186.438 48.108 186.009 47.481 185.459 47.107C184.931 46.711 184.216 46.513 183.314 46.513C182.478 46.513 181.862 46.656 181.466 46.942C181.07 47.228 180.872 47.569 180.872 47.965C180.872 48.427 181.114 48.801 181.598 49.087C182.082 49.351 182.709 49.582 183.479 49.78C184.249 49.956 185.063 50.165 185.921 50.407C186.779 50.649 187.593 50.979 188.363 51.397C189.133 51.815 189.76 52.387 190.244 53.113C190.728 53.817 190.97 54.752 190.97 55.918C190.97 57.546 190.321 58.877 189.023 59.911C187.747 60.923 185.932 61.429 183.578 61.429Z" fill="white"/>
<path fill-rule="evenodd" clip-rule="evenodd" d="M107.839 1.8653C101.908 3.7623 79.765 15.0483 76.75 17.7113C74.4 19.7873 74.535 21.9473 77.016 21.9473C78.125 21.9473 84.762 18.8323 91.766 15.0243C108.359 6.0043 114.105 4.2033 121.206 5.7983C124.118 6.4523 133.016 10.1283 140.981 13.9673C148.945 17.8063 156.033 20.9473 156.731 20.9473C159.384 20.9473 157.714 19.3163 151.22 15.5673C147.524 13.4333 141.517 9.9693 137.872 7.8693C130.369 3.5463 120.42 -0.0787006 116.282 0.00129935C114.752 0.0302994 110.952 0.8693 107.839 1.8653ZM48.75 28.6823C46.138 28.8883 44 29.4303 44 29.8853C44 31.0613 53.333 31.8023 77.636 32.5573C101.41 33.2943 106 32.8653 106 29.9023C106 28.0073 105.192 27.9533 79.75 28.1273C65.313 28.2263 51.362 28.4763 48.75 28.6823Z" fill="#C43B3B"/>
</svg>
