<svg width="603" height="213" viewBox="0 0 603 213" fill="none" xmlns="http://www.w3.org/2000/svg">
<path fill-rule="evenodd" clip-rule="evenodd" d="M322.517 62.5959C304.724 68.2869 238.295 102.145 229.25 110.134C222.2 116.362 222.605 122.842 230.048 122.842C233.375 122.842 253.286 113.497 274.298 102.073C324.077 75.0129 341.315 69.6099 362.618 74.3949C371.354 76.3569 398.048 87.3849 421.943 98.9019C445.835 110.419 467.099 119.842 469.193 119.842C477.152 119.842 472.142 114.949 452.66 103.702C441.572 97.2999 423.551 86.9079 412.616 80.6079C390.107 67.6389 360.26 56.7639 347.846 57.0039C343.256 57.0909 331.856 59.6079 322.517 62.5959ZM145.25 143.047C137.414 143.665 131 145.291 131 146.656C131 150.184 158.999 152.407 231.908 154.672C303.23 156.883 317 155.596 317 146.707C317 141.022 314.576 140.86 238.25 141.382C194.939 141.679 153.086 142.429 145.25 143.047Z" fill="#C43B3B"/>
</svg>
