<svg width="603" height="213" viewBox="0 0 603 213" fill="none" xmlns="http://www.w3.org/2000/svg">
<path d="M69.7972 183L41.3842 114.69H55.4422L83.8552 183H69.7972ZM33.7612 183V114.69H46.8292V183H33.7612ZM78.4102 183V114.69H91.4782V183H78.4102ZM128.192 184.287C123.308 184.287 118.952 183.132 115.124 180.822C111.362 178.512 108.392 175.311 106.214 171.219C104.102 167.127 103.046 162.309 103.046 156.765C103.046 151.221 104.102 146.403 106.214 142.311C108.392 138.153 111.362 134.952 115.124 132.708C118.952 130.398 123.308 129.243 128.192 129.243C133.208 129.243 137.597 130.398 141.359 132.708C145.121 134.952 148.058 138.153 150.17 142.311C152.348 146.403 153.437 151.221 153.437 156.765C153.437 162.309 152.348 167.127 150.17 171.219C148.058 175.311 145.121 178.512 141.359 180.822C137.597 183.132 133.208 184.287 128.192 184.287ZM128.192 172.506C131.822 172.506 134.66 171.219 136.706 168.645C138.818 166.071 139.874 162.111 139.874 156.765C139.874 151.419 138.818 147.459 136.706 144.885C134.66 142.311 131.822 141.024 128.192 141.024C124.628 141.024 121.79 142.311 119.678 144.885C117.632 147.459 116.609 151.419 116.609 156.765C116.609 162.111 117.632 166.071 119.678 168.645C121.79 171.219 124.628 172.506 128.192 172.506ZM225.636 183V151.914C225.636 148.284 224.778 145.545 223.062 143.697C221.412 141.849 219.333 140.925 216.825 140.925C214.317 140.925 212.205 141.849 210.489 143.697C208.839 145.545 208.014 148.284 208.014 151.914H204.153C204.153 147.162 204.879 143.103 206.331 139.737C207.849 136.371 209.961 133.797 212.667 132.015C215.373 130.167 218.508 129.243 222.072 129.243C226.956 129.243 230.949 131.025 234.051 134.589C237.219 138.087 238.803 142.971 238.803 149.241V183H225.636ZM164.157 183V130.53H177.324V183H164.157ZM194.946 183V151.914C194.946 148.284 194.088 145.545 192.372 143.697C190.722 141.849 188.643 140.925 186.135 140.925C183.627 140.925 181.515 141.849 179.799 143.697C178.149 145.545 177.324 148.284 177.324 151.914H174.453C174.453 147.162 175.146 143.103 176.532 139.737C177.984 136.371 179.997 133.797 182.571 132.015C185.211 130.167 188.214 129.243 191.58 129.243C196.398 129.243 200.325 131.025 203.361 134.589C206.463 138.087 208.014 142.971 208.014 149.241V183H194.946ZM282.974 183C282.578 181.284 282.248 179.535 281.984 177.753C281.786 175.971 281.687 174.222 281.687 172.506V150.33C281.687 146.634 280.796 144.027 279.014 142.509C277.232 140.925 275.087 140.133 272.579 140.133C270.203 140.133 268.157 140.793 266.441 142.113C264.791 143.367 263.636 145.413 262.976 148.251L250.403 145.182C251.855 139.968 254.594 136.008 258.62 133.302C262.646 130.596 267.563 129.243 273.371 129.243C280.037 129.243 285.284 131.025 289.112 134.589C292.94 138.087 294.854 142.938 294.854 149.142V171.318C294.854 175.212 295.349 179.106 296.339 183H282.974ZM265.055 184.287C260.105 184.287 256.277 182.934 253.571 180.228C250.931 177.522 249.611 174.024 249.611 169.734C249.611 165.84 250.898 162.408 253.472 159.438C256.112 156.468 260.204 154.554 265.748 153.696L285.152 150.429V159.141L270.401 162.21C267.563 162.804 265.583 163.695 264.461 164.883C263.339 166.005 262.778 167.259 262.778 168.645C262.778 170.031 263.24 171.219 264.164 172.209C265.154 173.133 266.672 173.595 268.718 173.595C270.83 173.595 272.876 173.133 274.856 172.209C276.836 171.219 278.453 169.8 279.707 167.952C281.027 166.038 281.687 163.761 281.687 161.121H285.053C285.053 165.873 284.162 169.998 282.38 173.496C280.598 176.928 278.189 179.601 275.153 181.515C272.183 183.363 268.817 184.287 265.055 184.287ZM326.127 184.287C322.101 184.287 318.537 183.198 315.435 181.02C312.399 178.776 310.023 175.608 308.307 171.516C306.657 167.424 305.832 162.507 305.832 156.765C305.832 151.023 306.657 146.106 308.307 142.014C310.023 137.922 312.399 134.787 315.435 132.609C318.537 130.365 322.101 129.243 326.127 129.243C331.473 129.243 335.763 131.289 338.997 135.381C342.297 139.407 343.947 145.182 343.947 152.706V160.824C343.947 168.282 342.297 174.057 338.997 178.149C335.763 182.241 331.473 184.287 326.127 184.287ZM330.78 172.506C334.212 172.506 336.951 171.219 338.997 168.645C341.109 166.071 342.165 162.111 342.165 156.765C342.165 151.419 341.109 147.459 338.997 144.885C336.951 142.311 334.212 141.024 330.78 141.024C327.348 141.024 324.576 142.311 322.464 144.885C320.418 147.459 319.395 151.419 319.395 156.765C319.395 162.111 320.418 166.071 322.464 168.645C324.576 171.219 327.348 172.506 330.78 172.506ZM341.274 183V169.734L343.056 156.765L341.274 144.291V112.215H354.441V183H341.274ZM396.915 184.287C390.777 184.287 385.365 182.835 380.679 179.931C376.059 177.027 372.429 172.935 369.789 167.655C367.215 162.309 365.928 156.039 365.928 148.845C365.928 141.585 367.215 135.315 369.789 130.035C372.429 124.755 376.059 120.663 380.679 117.759C385.365 114.855 390.777 113.403 396.915 113.403C401.865 113.403 406.32 114.327 410.28 116.175C414.306 118.023 417.672 120.663 420.378 124.095C423.084 127.461 424.932 131.52 425.922 136.272L412.359 140.034C411.567 135.612 409.818 132.213 407.112 129.837C404.472 127.461 401.04 126.273 396.816 126.273C391.734 126.273 387.642 128.253 384.54 132.213C381.438 136.173 379.887 141.717 379.887 148.845C379.887 155.907 381.438 161.451 384.54 165.477C387.642 169.437 391.734 171.417 396.816 171.417C401.172 171.417 404.703 170.229 407.409 167.853C410.115 165.411 411.864 161.946 412.656 157.458L426.219 161.22C425.163 166.038 423.282 170.163 420.576 173.595C417.87 177.027 414.504 179.667 410.478 181.515C406.518 183.363 401.997 184.287 396.915 184.287ZM467.868 183C467.472 181.284 467.142 179.535 466.878 177.753C466.68 175.971 466.581 174.222 466.581 172.506V150.33C466.581 146.634 465.69 144.027 463.908 142.509C462.126 140.925 459.981 140.133 457.473 140.133C455.097 140.133 453.051 140.793 451.335 142.113C449.685 143.367 448.53 145.413 447.87 148.251L435.297 145.182C436.749 139.968 439.488 136.008 443.514 133.302C447.54 130.596 452.457 129.243 458.265 129.243C464.931 129.243 470.178 131.025 474.006 134.589C477.834 138.087 479.748 142.938 479.748 149.142V171.318C479.748 175.212 480.243 179.106 481.233 183H467.868ZM449.949 184.287C444.999 184.287 441.171 182.934 438.465 180.228C435.825 177.522 434.505 174.024 434.505 169.734C434.505 165.84 435.792 162.408 438.366 159.438C441.006 156.468 445.098 154.554 450.642 153.696L470.046 150.429V159.141L455.295 162.21C452.457 162.804 450.477 163.695 449.355 164.883C448.233 166.005 447.672 167.259 447.672 168.645C447.672 170.031 448.134 171.219 449.058 172.209C450.048 173.133 451.566 173.595 453.612 173.595C455.724 173.595 457.77 173.133 459.75 172.209C461.73 171.219 463.347 169.8 464.601 167.952C465.921 166.038 466.581 163.761 466.581 161.121H469.947C469.947 165.873 469.056 169.998 467.274 173.496C465.492 176.928 463.083 179.601 460.047 181.515C457.077 183.363 453.711 184.287 449.949 184.287ZM493.005 183V130.53H506.172V183H493.005ZM503.796 158.052C503.796 152.244 504.456 147.195 505.776 142.905C507.096 138.549 509.142 135.183 511.914 132.807C514.686 130.431 518.217 129.243 522.507 129.243V144.192H516.765C513.465 144.192 510.858 145.05 508.944 146.766C507.096 148.416 506.172 151.32 506.172 155.478L503.796 158.052ZM550.734 184.287C544.398 184.287 539.316 183.066 535.488 180.624C531.726 178.116 529.284 174.354 528.162 169.338L540.339 165.477C541.197 168.447 542.55 170.592 544.398 171.912C546.312 173.232 548.721 173.892 551.625 173.892C554.331 173.892 556.344 173.496 557.664 172.704C558.984 171.846 559.644 170.625 559.644 169.041C559.644 167.391 558.918 166.104 557.466 165.18C556.08 164.256 554.265 163.497 552.021 162.903C549.777 162.243 547.368 161.583 544.794 160.923C542.286 160.197 539.91 159.273 537.666 158.151C535.422 156.963 533.574 155.379 532.122 153.399C530.67 151.353 529.944 148.68 529.944 145.38C529.944 140.694 531.759 136.833 535.389 133.797C539.019 130.761 544.134 129.243 550.734 129.243C556.476 129.243 561.096 130.431 564.594 132.807C568.158 135.183 570.666 138.648 572.118 143.202L560.238 146.964C559.314 144.324 558.027 142.443 556.377 141.321C554.793 140.133 552.648 139.539 549.942 139.539C547.434 139.539 545.586 139.968 544.398 140.826C543.21 141.684 542.616 142.707 542.616 143.895C542.616 145.281 543.342 146.403 544.794 147.261C546.246 148.053 548.127 148.746 550.437 149.34C552.747 149.868 555.189 150.495 557.763 151.221C560.337 151.947 562.779 152.937 565.089 154.191C567.399 155.445 569.28 157.161 570.732 159.339C572.184 161.451 572.91 164.256 572.91 167.754C572.91 172.638 570.963 176.631 567.069 179.733C563.241 182.769 557.796 184.287 550.734 184.287Z" fill="#080808"/>
<path fill-rule="evenodd" clip-rule="evenodd" d="M323.517 5.5959C305.724 11.2869 239.295 45.1449 230.25 53.1339C223.2 59.3619 223.605 65.8419 231.048 65.8419C234.375 65.8419 254.286 56.4969 275.298 45.0729C325.077 18.0129 342.315 12.6099 363.618 17.3949C372.354 19.3569 399.048 30.3849 422.943 41.9019C446.835 53.4189 468.099 62.8419 470.193 62.8419C478.152 62.8419 473.142 57.9489 453.66 46.7019C442.572 40.2999 424.551 29.9079 413.616 23.6079C391.107 10.6389 361.26 -0.236102 348.846 0.00389806C344.256 0.0908982 332.856 2.6079 323.517 5.5959ZM146.25 86.0469C138.414 86.6649 132 88.2909 132 89.6559C132 93.1839 159.999 95.4069 232.908 97.6719C304.23 99.8829 318 98.5959 318 89.7069C318 84.0219 315.576 83.8599 239.25 84.3819C195.939 84.6789 154.086 85.4289 146.25 86.0469Z" fill="#C43B3B"/>
</svg>
