<svg width="30" height="30" viewBox="0 0 30 30" fill="none" xmlns="http://www.w3.org/2000/svg">
    <path d="M11.25 13.75L13.75 16.25L19.375 10.625M12.375 24L14.2 26.4333C14.4714 26.7952 14.6071 26.9761 14.7735 27.0408C14.9192 27.0975 15.0808 27.0975 15.2265 27.0408C15.3929 26.9761 15.5286 26.7952 15.8 26.4333L17.625 24C17.9914 23.5114 18.1747 23.2671 18.3981 23.0806C18.6961 22.8319 19.0479 22.656 19.4256 22.5669C19.7089 22.5 20.0143 22.5 20.625 22.5C22.3723 22.5 23.2459 22.5 23.9351 22.2145C24.8539 21.8339 25.5839 21.1039 25.9645 20.1851C26.25 19.4959 26.25 18.6223 26.25 16.875V9.75C26.25 7.6498 26.25 6.5997 25.8413 5.79754C25.4817 5.09193 24.9081 4.51825 24.2025 4.15873C23.4003 3.75 22.3502 3.75 20.25 3.75H9.75C7.6498 3.75 6.5997 3.75 5.79754 4.15873C5.09193 4.51825 4.51825 5.09193 4.15873 5.79754C3.75 6.5997 3.75 7.6498 3.75 9.75V16.875C3.75 18.6223 3.75 19.4959 4.03545 20.1851C4.41605 21.1039 5.14608 21.8339 6.06494 22.2145C6.75408 22.5 7.62772 22.5 9.375 22.5C9.98572 22.5 10.2911 22.5 10.5744 22.5669C10.9521 22.656 11.3039 22.8319 11.6019 23.0806C11.8253 23.2671 12.0086 23.5114 12.375 24Z" stroke="white" stroke-width="2" stroke-linecap="round" stroke-linejoin="round"/>
</svg>
