<svg width="37" height="38" viewBox="0 0 37 38" fill="none" xmlns="http://www.w3.org/2000/svg">
<path fill-rule="evenodd" clip-rule="evenodd" d="M37 19C37 29.4934 28.7173 38 18.5 38C8.28273 38 0 29.4934 0 19C0 8.50659 8.28273 0 18.5 0C28.7173 0 37 8.50659 37 19ZM19.163 14.0266C17.3636 14.7953 13.7673 16.3862 8.37417 18.7994C7.49841 19.1571 7.03965 19.507 6.99788 19.8491C6.9273 20.4274 7.63235 20.6551 8.59243 20.9651C8.72303 21.0073 8.85835 21.051 8.99707 21.0973C9.94165 21.4126 11.2123 21.7816 11.8728 21.7962C12.472 21.8095 13.1407 21.5558 13.8791 21.0351C18.918 17.5418 21.5192 15.776 21.6825 15.738C21.7977 15.7111 21.9573 15.6773 22.0655 15.7761C22.1737 15.8748 22.1631 16.0618 22.1516 16.112C22.0817 16.4178 19.3142 19.0603 17.882 20.4278C17.4355 20.8541 17.1188 21.1565 17.054 21.2256C16.909 21.3803 16.7612 21.5266 16.6191 21.6673C15.7416 22.5361 15.0835 23.1876 16.6556 24.2516C17.411 24.7629 18.0156 25.1857 18.6186 25.6075C19.2773 26.0681 19.9342 26.5276 20.7842 27.0998C21.0007 27.2456 21.2075 27.397 21.409 27.5445C22.1754 28.1057 22.8641 28.6099 23.7148 28.5295C24.2092 28.4828 24.7198 28.0054 24.9791 26.5816C25.592 23.2166 26.7967 15.9259 27.0751 12.9215C27.0995 12.6583 27.0688 12.3215 27.0442 12.1736C27.0195 12.0257 26.968 11.815 26.7809 11.659C26.5592 11.4743 26.217 11.4354 26.064 11.4381C25.3682 11.4507 24.3006 11.832 19.163 14.0266Z" fill="white"/>
</svg>
